HIERARCHY
ROOT Hips
{
	OFFSET -0.001795 -0.223333 0.028219
	CHANNELS 6 Xposition Yposition Zposition Zrotation Yrotation Xrotation 
	JOINT LeftUpLeg
	{
		OFFSET 0.069520 -0.091406 -0.006815
		CHANNELS 3 Zrotation Yrotation Xrotation
		JOINT LeftLeg
		{
			OFFSET 0.034277 -0.375199 -0.004496
			CHANNELS 3 Zrotation Yrotation Xrotation
			JOINT LeftFoot
			{
				OFFSET -0.013596 -0.397961 -0.043693
				CHANNELS 3 Zrotation Yrotation Xrotation
				JOINT LeftToe
				{
					OFFSET 0.026358 -0.055791 0.119288
					CHANNELS 3 Zrotation Yrotation Xrotation
					End Site
					{
						OFFSET 0.000000 0.000000 0.000000
					}
				}
			}
		}
	}
	JOINT RightUpLeg
	{
		OFFSET -0.067670 -0.090522 -0.004320
		CHANNELS 3 Zrotation Yrotation Xrotation
		JOINT RightLeg
		{
			OFFSET -0.038290 -0.382569 -0.008850
			CHANNELS 3 Zrotation Yrotation Xrotation
			JOINT RightFoot
			{
				OFFSET 0.015774 -0.398415 -0.042312
				CHANNELS 3 Zrotation Yrotation Xrotation
				JOINT RightToe
				{
					OFFSET -0.025372 -0.048144 0.123348
					CHANNELS 3 Zrotation Yrotation Xrotation
					End Site
					{
						OFFSET 0.000000 0.000000 0.000000
					}
				}
			}
		}
	}
	JOINT Spine
	{
		OFFSET -0.002533 0.108963 -0.026696
		CHANNELS 3 Zrotation Yrotation Xrotation
		JOINT Spine1
		{
			OFFSET 0.005487 0.135180 0.001092
			CHANNELS 3 Zrotation Yrotation Xrotation
			JOINT Spine2
			{
				OFFSET 0.001457 0.052922 0.025425
				CHANNELS 3 Zrotation Yrotation Xrotation
				JOINT Neck
				{
					OFFSET -0.002778 0.213870 -0.042857
					CHANNELS 3 Zrotation Yrotation Xrotation
					JOINT Head
					{
						OFFSET 0.005152 0.064970 0.051349
						CHANNELS 3 Zrotation Yrotation Xrotation
						End Site
						{
							OFFSET 0.000000 0.000000 0.000000
						}
					}
				}
				JOINT LeftShoulder
				{
					OFFSET 0.078845 0.121749 -0.034090
					CHANNELS 3 Zrotation Yrotation Xrotation
					JOINT LeftArm
					{
						OFFSET 0.090977 0.030469 -0.008868
						CHANNELS 3 Zrotation Yrotation Xrotation
						JOINT LeftForeArm
						{
							OFFSET 0.259612 -0.012772 -0.027456
							CHANNELS 3 Zrotation Yrotation Xrotation
							JOINT LeftHand
							{
								OFFSET 0.249234 0.008986 -0.001171
								CHANNELS 3 Zrotation Yrotation Xrotation
								End Site
								{
									OFFSET 0.000000 0.000000 0.000000
								}
							}
						}
					}
				}
				JOINT RightShoulder
				{
					OFFSET -0.081759 0.118833 -0.038615
					CHANNELS 3 Zrotation Yrotation Xrotation
					JOINT RightArm
					{
						OFFSET -0.096012 0.032551 -0.009143
						CHANNELS 3 Zrotation Yrotation Xrotation
						JOINT RightForeArm
						{
							OFFSET -0.253742 -0.013329 -0.021401
							CHANNELS 3 Zrotation Yrotation Xrotation
							JOINT RightHand
							{
								OFFSET -0.255298 0.007772 -0.005559
								CHANNELS 3 Zrotation Yrotation Xrotation
								End Site
								{
									OFFSET 0.000000 0.000000 0.000000
								}
							}
						}
					}
				}
			}
		}
	}
}
MOTION
Frames: 10
Frame Time: 0.050000
0.009264 0.950728 -0.024104 -0.982697 5.547145 -7.078350 2.929447 0.245993 4.572534 -2.075917 0.225964 -0.967559 2.568109 9.285216 11.568551 0.000000 0.000000 0.000000 -7.085480 -0.258592 4.288279 4.539113 -0.560319 1.450624 -5.051728 -14.385467 16.883530 0.000000 0.000000 0.000000 -6.223744 -0.029388 10.210122 3.137446 -0.550598 -14.676334 5.542851 9.501285 28.760482 4.502846 -1.204195 -10.331090 0.000000 0.000000 0.000000 -31.926589 -2.444686 -6.085601 -47.027426 -0.988486 -5.882143 -10.625666 -57.258987 7.099322 0.000000 0.000000 0.000000 10.367127 19.460274 9.977345 -0.412099 47.133856 -3.272233 -51.560383 23.483487 -8.842544 0.000000 0.000000 0.000000 
0.009857 0.950053 -0.024884 -1.071524 5.876791 -7.035657 2.958453 0.242892 4.636907 -2.166395 0.235074 -1.132914 2.694689 9.437893 11.292367 0.000000 0.000000 0.000000 -7.197788 -0.247827 3.954981 4.727612 -0.593532 1.908095 -5.138678 -14.506890 17.162016 0.000000 0.000000 0.000000 -6.445656 -0.017753 10.271945 3.359999 -0.636436 -14.363358 5.849915 9.366990 29.152273 4.303691 -1.039638 -10.263161 0.000000 0.000000 0.000000 -32.301604 -2.153143 -6.420490 -47.330058 -0.985110 -5.913685 -10.207676 -60.334170 7.304180 0.000000 0.000000 0.000000 12.284897 18.835057 10.293615 4.086104 45.654167 -1.965986 -53.040592 28.747135 -11.446336 0.000000 0.000000 0.000000 
0.009951 0.949638 -0.025618 -1.023526 6.010926 -7.247166 2.908328 0.251161 4.747654 -2.108418 0.228016 -1.035127 2.649814 9.436801 11.498987 0.000000 0.000000 0.000000 -7.317288 -0.246006 3.813194 4.610382 -0.581738 2.456617 -5.156376 -14.540705 17.459604 0.000000 0.000000 0.000000 -6.924118 0.010081 10.648838 3.491969 -0.706823 -13.943401 6.345376 9.392304 29.564958 3.547390 -0.505356 -9.611229 0.000000 0.000000 0.000000 -33.172019 -1.865238 -6.893421 -47.246791 -0.904391 -5.879182 -9.228803 -63.587024 7.185365 0.000000 0.000000 0.000000 14.636821 18.718369 10.971883 8.374971 43.859106 -0.911547 -54.032806 33.570243 -13.893476 0.000000 0.000000 0.000000 
0.009550 0.949470 -0.026540 -1.093254 6.458106 -7.679330 3.246478 0.233516 4.805422 -2.344991 0.237384 -0.367013 2.430967 9.027424 11.127666 0.000000 0.000000 0.000000 -7.085766 -0.271391 3.866654 4.489654 -0.572528 2.819438 -5.189442 -14.550629 17.638491 0.000000 0.000000 0.000000 -7.231565 0.019993 11.350059 3.553996 -0.748075 -13.510040 6.778268 9.602858 29.682803 3.438011 -0.483234 -8.859901 0.000000 0.000000 0.000000 -33.307714 -1.774385 -7.217936 -47.322986 -0.869743 -5.818693 -10.421122 -65.915002 8.159533 0.000000 0.000000 0.000000 16.266338 18.485001 11.435580 11.905149 42.526046 -0.117449 -54.362700 36.256269 -15.131379 0.000000 0.000000 0.000000 
0.008807 0.949623 -0.027712 -1.176319 6.316665 -7.533651 3.298955 0.213949 4.458670 -2.249000 0.224043 -0.066769 2.262840 8.666225 10.844995 0.000000 0.000000 0.000000 -7.025273 -0.254827 3.620191 4.734855 -0.607899 2.814572 -5.210219 -14.601593 17.685818 0.000000 0.000000 0.000000 -7.424471 0.038364 11.302724 3.732876 -0.839416 -13.143403 7.130657 10.036678 29.668876 3.398659 -0.480537 -8.391100 0.000000 0.000000 0.000000 -33.129560 -1.584477 -7.491368 -47.415912 -0.512147 -5.899917 -13.872078 -67.211203 10.531488 0.000000 0.000000 0.000000 17.447613 18.642584 11.980700 13.628578 42.043034 0.214159 -54.618809 36.866041 -15.377966 0.000000 0.000000 0.000000 
0.008137 0.949947 -0.029083 -1.314217 6.037277 -7.652052 3.586848 0.199586 4.356595 -2.450512 0.240784 0.218707 2.298049 8.628877 10.601201 0.000000 0.000000 0.000000 -6.834183 -0.248759 3.513307 4.750873 -0.607497 2.877193 -5.312990 -14.782221 17.314830 0.000000 0.000000 0.000000 -7.322823 0.038102 11.837429 3.655936 -0.814279 -13.227155 7.496612 10.290652 29.537552 3.734044 -0.928376 -7.498494 0.000000 0.000000 0.000000 -33.442550 -1.821778 -7.461662 -46.931593 0.132510 -6.011490 -15.356488 -67.500967 11.567306 0.000000 0.000000 0.000000 17.464380 19.190059 12.266711 13.744675 42.208740 0.290701 -55.989207 35.591284 -15.195184 0.000000 0.000000 0.000000 
0.007685 0.950145 -0.030506 -1.254244 5.922771 -7.544557 3.616151 0.187810 4.126360 -2.632632 0.254642 0.573654 2.388516 8.638783 10.180319 0.000000 0.000000 0.000000 -7.044939 -0.230358 3.285709 5.095501 -0.655193 2.597813 -5.405874 -14.948921 17.253018 0.000000 0.000000 0.000000 -7.123144 0.030497 12.134031 3.619211 -0.799876 -13.280732 7.425243 10.452423 29.196717 3.768164 -0.987471 -7.314688 0.000000 0.000000 0.000000 -33.420613 -1.962020 -7.411398 -46.816058 0.606122 -6.123003 -17.538736 -66.635525 12.785024 0.000000 0.000000 0.000000 16.911731 19.580693 12.304562 12.819141 42.957204 0.173168 -57.070189 34.019287 -14.747765 0.000000 0.000000 0.000000 
0.007593 0.950061 -0.031868 -1.184226 5.878452 -7.740383 3.423840 0.203052 4.210558 -2.622362 0.253585 0.613587 2.498398 8.739295 9.929444 0.000000 0.000000 0.000000 -7.307915 -0.226946 3.235894 5.251422 -0.679557 2.720061 -5.448072 -15.017890 17.043364 0.000000 0.000000 0.000000 -6.815295 0.008434 12.973889 3.516920 -0.752982 -13.473251 7.440961 10.582868 28.884311 4.002317 -1.431827 -6.157766 0.000000 0.000000 0.000000 -33.958652 -2.374486 -7.322034 -46.431269 1.157368 -6.180433 -16.755998 -65.977555 12.109747 0.000000 0.000000 0.000000 16.098530 20.213740 12.357003 10.981473 43.944218 -0.166264 -57.436029 31.716570 -13.760522 0.000000 0.000000 0.000000 
0.007704 0.949602 -0.033351 -0.996903 6.033438 -7.934832 3.158472 0.205137 4.022216 -2.769592 0.259626 1.269508 2.808299 9.193545 9.722509 0.000000 0.000000 0.000000 -7.558668 -0.228808 3.181214 5.325722 -0.697750 3.089594 -5.555153 -15.171648 16.785538 0.000000 0.000000 0.000000 -6.659141 -0.008381 13.866627 3.479190 -0.716507 -13.813660 7.341906 10.616828 28.859503 4.162106 -1.663890 -5.726888 0.000000 0.000000 0.000000 -34.293071 -2.683263 -7.241997 -46.379507 1.659291 -6.316993 -17.576976 -65.006758 12.425514 0.000000 0.000000 0.000000 15.020638 20.696555 12.238539 8.659627 44.942328 -0.680527 -56.429389 29.246586 -12.344334 0.000000 0.000000 0.000000 
0.007819 0.949457 -0.035067 -0.925122 6.259000 -8.167007 2.998372 0.209692 4.003559 -2.742441 0.249849 1.663894 2.823635 9.178983 9.528591 0.000000 0.000000 0.000000 -7.593138 -0.229222 2.965001 5.402814 -0.721779 3.641122 -5.627165 -15.269185 16.848152 0.000000 0.000000 0.000000 -6.159486 -0.066369 14.874829 3.189146 -0.602146 -13.890686 7.292076 10.715520 28.634931 4.421869 -2.079515 -4.854082 0.000000 0.000000 0.000000 -34.678839 -3.239986 -7.084158 -46.578085 2.056639 -6.398869 -16.802133 -64.633979 11.799954 0.000000 0.000000 0.000000 14.602106 21.332387 12.447812 7.136605 45.243050 -1.060729 -54.003908 28.023356 -11.221056 0.000000 0.000000 0.000000 
